<svg width="72" height="72" viewBox="0 0 72 72" fill="none" xmlns="http://www.w3.org/2000/svg">
<rect width="72" height="72" rx="8" fill="#F5F5F6"/>
<path d="M55.5 21.375H42C40.8041 21.3759 39.6277 21.6778 38.5791 22.2528C37.5305 22.8279 36.6436 23.6577 36 24.6656C35.3564 23.6577 34.4695 22.8279 33.4209 22.2528C32.3723 21.6778 31.1959 21.3759 30 21.375H16.5C16.2016 21.375 15.9155 21.4935 15.7045 21.7045C15.4935 21.9155 15.375 22.2016 15.375 22.5V49.5C15.375 49.7984 15.4935 50.0845 15.7045 50.2955C15.9155 50.5065 16.2016 50.625 16.5 50.625H30C31.2929 50.625 32.5329 51.1386 33.4471 52.0529C34.3614 52.9671 34.875 54.2071 34.875 55.5C34.875 55.7984 34.9935 56.0845 35.2045 56.2955C35.4155 56.5065 35.7016 56.625 36 56.625C36.2984 56.625 36.5845 56.5065 36.7955 56.2955C37.0065 56.0845 37.125 55.7984 37.125 55.5C37.125 54.2071 37.6386 52.9671 38.5529 52.0529C39.4671 51.1386 40.7071 50.625 42 50.625H55.5C55.7984 50.625 56.0845 50.5065 56.2955 50.2955C56.5065 50.0845 56.625 49.7984 56.625 49.5V22.5C56.625 22.2016 56.5065 21.9155 56.2955 21.7045C56.0845 21.4935 55.7984 21.375 55.5 21.375ZM30 48.375H17.625V23.625H30C31.2929 23.625 32.5329 24.1386 33.4471 25.0529C34.3614 25.9671 34.875 27.2071 34.875 28.5V50.3081C33.5563 49.0651 31.8122 48.3735 30 48.375ZM54.375 48.375H42C40.1876 48.3742 38.4435 49.0665 37.125 50.31V28.5C37.125 27.2071 37.6386 25.9671 38.5529 25.0529C39.4671 24.1386 40.7071 23.625 42 23.625H54.375V48.375ZM42 28.875H49.5C49.7984 28.875 50.0845 28.9935 50.2955 29.2045C50.5065 29.4155 50.625 29.7016 50.625 30C50.625 30.2984 50.5065 30.5845 50.2955 30.7955C50.0845 31.0065 49.7984 31.125 49.5 31.125H42C41.7016 31.125 41.4155 31.0065 41.2045 30.7955C40.9935 30.5845 40.875 30.2984 40.875 30C40.875 29.7016 40.9935 29.4155 41.2045 29.2045C41.4155 28.9935 41.7016 28.875 42 28.875ZM50.625 36C50.625 36.2984 50.5065 36.5845 50.2955 36.7955C50.0845 37.0065 49.7984 37.125 49.5 37.125H42C41.7016 37.125 41.4155 37.0065 41.2045 36.7955C40.9935 36.5845 40.875 36.2984 40.875 36C40.875 35.7016 40.9935 35.4155 41.2045 35.2045C41.4155 34.9935 41.7016 34.875 42 34.875H49.5C49.7984 34.875 50.0845 34.9935 50.2955 35.2045C50.5065 35.4155 50.625 35.7016 50.625 36ZM50.625 42C50.625 42.2984 50.5065 42.5845 50.2955 42.7955C50.0845 43.0065 49.7984 43.125 49.5 43.125H42C41.7016 43.125 41.4155 43.0065 41.2045 42.7955C40.9935 42.5845 40.875 42.2984 40.875 42C40.875 41.7016 40.9935 41.4155 41.2045 41.2045C41.4155 40.9935 41.7016 40.875 42 40.875H49.5C49.7984 40.875 50.0845 40.9935 50.2955 41.2045C50.5065 41.4155 50.625 41.7016 50.625 42Z" fill="#2563EB"/>
</svg>
