<svg width="127" height="32" viewBox="0 0 127 32" fill="none" xmlns="http://www.w3.org/2000/svg">
<path d="M26 3.25H9C8.00544 3.25 7.05161 3.64509 6.34835 4.34835C5.64509 5.05161 5.25 6.00544 5.25 7V28C5.25 28.1989 5.32902 28.3897 5.46967 28.5303C5.61032 28.671 5.80109 28.75 6 28.75H24C24.1989 28.75 24.3897 28.671 24.5303 28.5303C24.671 28.3897 24.75 28.1989 24.75 28C24.75 27.8011 24.671 27.6103 24.5303 27.4697C24.3897 27.329 24.1989 27.25 24 27.25H6.75V27C6.75 26.4033 6.98705 25.831 7.40901 25.409C7.83097 24.9871 8.40326 24.75 9 24.75H26C26.1989 24.75 26.3897 24.671 26.5303 24.5303C26.671 24.3897 26.75 24.1989 26.75 24V4C26.75 3.80109 26.671 3.61032 26.5303 3.46967C26.3897 3.32902 26.1989 3.25 26 3.25ZM25.25 23.25H9C8.18842 23.2488 7.39856 23.5121 6.75 24V7C6.75 6.40326 6.98705 5.83097 7.40901 5.40901C7.83097 4.98705 8.40326 4.75 9 4.75H25.25V23.25Z" fill="#2563EB"/>
<path d="M39.4347 23V8.45455H45.0028C46.054 8.45455 46.9276 8.62026 47.6236 8.9517C48.3243 9.27841 48.8475 9.72585 49.1932 10.294C49.5436 10.8622 49.7188 11.5062 49.7188 12.2259C49.7188 12.8177 49.6051 13.3243 49.3778 13.7457C49.1506 14.1624 48.8452 14.5009 48.4616 14.7614C48.0781 15.0218 47.6496 15.2088 47.1761 15.3224V15.4645C47.6922 15.4929 48.187 15.6515 48.6605 15.9403C49.1387 16.2244 49.5294 16.6269 49.8324 17.1477C50.1354 17.6686 50.2869 18.2983 50.2869 19.0369C50.2869 19.7898 50.1046 20.4669 49.7401 21.0682C49.3755 21.6648 48.8262 22.1359 48.0923 22.4815C47.3584 22.8272 46.4351 23 45.3224 23H39.4347ZM42.0696 20.7983H44.9034C45.8598 20.7983 46.5488 20.616 46.9702 20.2514C47.3963 19.8821 47.6094 19.4086 47.6094 18.831C47.6094 18.4001 47.5028 18.0118 47.2898 17.6662C47.0767 17.3158 46.7737 17.0412 46.3807 16.8423C45.9877 16.6387 45.5189 16.5369 44.9744 16.5369H42.0696V20.7983ZM42.0696 14.6406H44.6761C45.1307 14.6406 45.5402 14.5578 45.9048 14.392C46.2694 14.2216 46.5559 13.9825 46.7642 13.6747C46.9773 13.3622 47.0838 12.9929 47.0838 12.5668C47.0838 12.0033 46.8849 11.5393 46.4872 11.1747C46.0942 10.8101 45.5095 10.6278 44.733 10.6278H42.0696V14.6406ZM57.2241 23.2131C56.1587 23.2131 55.2354 22.9787 54.4542 22.5099C53.6729 22.0412 53.0669 21.3854 52.636 20.5426C52.2099 19.6998 51.9968 18.715 51.9968 17.5881C51.9968 16.4612 52.2099 15.474 52.636 14.6264C53.0669 13.7789 53.6729 13.1207 54.4542 12.652C55.2354 12.1832 56.1587 11.9489 57.2241 11.9489C58.2894 11.9489 59.2127 12.1832 59.994 12.652C60.7752 13.1207 61.3789 13.7789 61.805 14.6264C62.2359 15.474 62.4513 16.4612 62.4513 17.5881C62.4513 18.715 62.2359 19.6998 61.805 20.5426C61.3789 21.3854 60.7752 22.0412 59.994 22.5099C59.2127 22.9787 58.2894 23.2131 57.2241 23.2131ZM57.2383 21.1534C57.8159 21.1534 58.2989 20.9948 58.6871 20.6776C59.0754 20.3556 59.3642 19.9247 59.5536 19.3849C59.7478 18.8452 59.8448 18.2438 59.8448 17.581C59.8448 16.9134 59.7478 16.3097 59.5536 15.7699C59.3642 15.2254 59.0754 14.7921 58.6871 14.4702C58.2989 14.1482 57.8159 13.9872 57.2383 13.9872C56.6464 13.9872 56.154 14.1482 55.761 14.4702C55.3728 14.7921 55.0816 15.2254 54.8874 15.7699C54.698 16.3097 54.6033 16.9134 54.6033 17.581C54.6033 18.2438 54.698 18.8452 54.8874 19.3849C55.0816 19.9247 55.3728 20.3556 55.761 20.6776C56.154 20.9948 56.6464 21.1534 57.2383 21.1534ZM69.392 23.2131C68.3267 23.2131 67.4034 22.9787 66.6222 22.5099C65.8409 22.0412 65.2348 21.3854 64.804 20.5426C64.3778 19.6998 64.1648 18.715 64.1648 17.5881C64.1648 16.4612 64.3778 15.474 64.804 14.6264C65.2348 13.7789 65.8409 13.1207 66.6222 12.652C67.4034 12.1832 68.3267 11.9489 69.392 11.9489C70.4574 11.9489 71.3807 12.1832 72.1619 12.652C72.9432 13.1207 73.5469 13.7789 73.973 14.6264C74.4039 15.474 74.6193 16.4612 74.6193 17.5881C74.6193 18.715 74.4039 19.6998 73.973 20.5426C73.5469 21.3854 72.9432 22.0412 72.1619 22.5099C71.3807 22.9787 70.4574 23.2131 69.392 23.2131ZM69.4062 21.1534C69.9839 21.1534 70.4669 20.9948 70.8551 20.6776C71.2434 20.3556 71.5322 19.9247 71.7216 19.3849C71.9157 18.8452 72.0128 18.2438 72.0128 17.581C72.0128 16.9134 71.9157 16.3097 71.7216 15.7699C71.5322 15.2254 71.2434 14.7921 70.8551 14.4702C70.4669 14.1482 69.9839 13.9872 69.4062 13.9872C68.8144 13.9872 68.322 14.1482 67.929 14.4702C67.5407 14.7921 67.2495 15.2254 67.0554 15.7699C66.866 16.3097 66.7713 16.9134 66.7713 17.581C66.7713 18.2438 66.866 18.8452 67.0554 19.3849C67.2495 19.9247 67.5407 20.3556 67.929 20.6776C68.322 20.9948 68.8144 21.1534 69.4062 21.1534ZM79.1452 19.5767L79.1381 16.473H79.5501L83.4705 12.0909H86.4748L81.6523 17.4602H81.1197L79.1452 19.5767ZM76.8015 23V8.45455H79.3725V23H76.8015ZM83.6481 23L80.0969 18.0355L81.8299 16.2244L86.7234 23H83.6481ZM88.3018 23V8.45455H90.9368V14.6122H97.6768V8.45455H100.319V23H97.6768V16.821H90.9368V23H88.3018ZM110.024 18.4119V12.0909H112.595V23H110.102V21.0611H109.989C109.742 21.6719 109.338 22.1714 108.774 22.5597C108.215 22.9479 107.527 23.142 106.707 23.142C105.992 23.142 105.36 22.9834 104.811 22.6662C104.267 22.3442 103.84 21.8778 103.533 21.267C103.225 20.6515 103.071 19.9081 103.071 19.0369V12.0909H105.642V18.6392C105.642 19.3305 105.831 19.8797 106.21 20.2869C106.589 20.6941 107.086 20.8977 107.702 20.8977C108.08 20.8977 108.447 20.8054 108.803 20.6207C109.158 20.4361 109.449 20.1615 109.676 19.7969C109.908 19.4276 110.024 18.9659 110.024 18.4119ZM115.353 23V8.45455H117.924V13.8949H118.03C118.163 13.6297 118.35 13.348 118.591 13.0497C118.833 12.7467 119.159 12.4886 119.571 12.2756C119.983 12.0578 120.509 11.9489 121.148 11.9489C121.991 11.9489 122.751 12.1643 123.428 12.5952C124.11 13.0213 124.65 13.6534 125.047 14.4915C125.45 15.3248 125.651 16.3475 125.651 17.5597C125.651 18.7576 125.454 19.7756 125.061 20.6136C124.668 21.4517 124.133 22.0909 123.456 22.5312C122.779 22.9716 122.012 23.1918 121.155 23.1918C120.53 23.1918 120.012 23.0876 119.6 22.8793C119.188 22.6709 118.856 22.42 118.605 22.1264C118.359 21.8281 118.167 21.5464 118.03 21.2812H117.881V23H115.353ZM117.874 17.5455C117.874 18.2509 117.973 18.8688 118.172 19.3991C118.376 19.9295 118.667 20.3437 119.046 20.642C119.429 20.9356 119.893 21.0824 120.438 21.0824C121.006 21.0824 121.482 20.9309 121.865 20.6278C122.249 20.3201 122.538 19.901 122.732 19.3707C122.931 18.8357 123.03 18.2273 123.03 17.5455C123.03 16.8684 122.933 16.267 122.739 15.7415C122.545 15.2159 122.256 14.804 121.873 14.5057C121.489 14.2074 121.011 14.0582 120.438 14.0582C119.889 14.0582 119.422 14.2027 119.039 14.4915C118.655 14.7803 118.364 15.1851 118.165 15.706C117.971 16.2268 117.874 16.84 117.874 17.5455Z" fill="#2563EB"/>
</svg>
